<?xml version="1.0" encoding="UTF-8"?>
<svg xmlns="http://www.w3.org/2000/svg" version="1.1" viewBox="0 0 15 17">
  <defs>
    <style>
      .cls-1 {
        fill: #fff;
      }
    </style>
  </defs>
  <!-- Generator: Adobe Illustrator 28.7.2, SVG Export Plug-In . SVG Version: 1.2.0 Build 154)  -->
  <g>
    <g id="_レイヤー_1" data-name="レイヤー_1">
      <path class="cls-1" d="M9,17v-2.2h-1.5c-2.1,0-3.9-.7-5.3-2.2C.7,11.2,0,9.4,0,7.4c0-2.1.7-3.8,2.2-5.2C3.6.7,5.4,0,7.5,0s2,.2,2.9.6c.9.4,1.7.9,2.4,1.6.7.7,1.2,1.5,1.6,2.3.4.9.6,1.9.6,2.9s-.1,2-.4,2.9c-.3.9-.7,1.8-1.2,2.6-.5.8-1.2,1.6-1.9,2.3-.7.7-1.5,1.3-2.4,1.8ZM10,15.1c1.2-1,2.1-2.1,2.9-3.5s1.1-2.7,1.1-4.3-.6-3.3-1.9-4.5-2.8-1.9-4.6-1.9-3.4.6-4.6,1.9c-1.3,1.2-1.9,2.8-1.9,4.5s.6,3.3,1.9,4.5c1.3,1.2,2.8,1.9,4.6,1.9h2.5v1.3ZM7.5,12.4c.2,0,.4,0,.5-.2.1-.1.2-.3.2-.5s0-.4-.2-.5-.3-.2-.5-.2c-.2,0-.4,0-.5.2-.1.1-.2.3-.2.5s0,.4.2.5c.1.1.3.2.5.2ZM7.1,9.5h.9c0-.4.1-.7.2-1,.1-.2.4-.6.9-1.1.3-.3.5-.6.7-.9.2-.3.3-.6.3-1,0-.7-.2-1.3-.7-1.7-.5-.4-1.1-.6-1.8-.6s-1.1.2-1.6.5c-.4.3-.7.7-.9,1.2l.8.3c.1-.3.3-.6.6-.8.3-.2.6-.4,1.1-.4s1,.2,1.3.5c.3.3.4.6.4,1s0,.6-.3.8c-.2.2-.4.5-.7.7-.5.4-.8.8-.9,1.1-.2.3-.2.7-.2,1.2Z"/>
    </g>
  </g>
</svg>